<?xml version="1.0" encoding="utf-8"?>
<!-- Generator: Adobe Illustrator 26.0.1, SVG Export Plug-In . SVG Version: 6.00 Build 0)  -->
<svg version="1.1"
	 id="svg8" inkscape:version="0.92.5 (2060ec1f9f, 2020-04-08)" xmlns:cc="http://creativecommons.org/ns#" xmlns:dc="http://purl.org/dc/elements/1.1/" xmlns:inkscape="http://www.inkscape.org/namespaces/inkscape" xmlns:rdf="http://www.w3.org/1999/02/22-rdf-syntax-ns#" xmlns:sodipodi="http://sodipodi.sourceforge.net/DTD/sodipodi-0.dtd" xmlns:svg="http://www.w3.org/2000/svg"
	 xmlns="http://www.w3.org/2000/svg" xmlns:xlink="http://www.w3.org/1999/xlink" x="0px" y="0px" viewBox="0 0 134.1 103.5"
	 style="enable-background:new 0 0 134.1 103.5;" xml:space="preserve">
<style type="text/css">
	.st0{clip-path:url(#SVGID_00000147216211974939681280000015105535650743638657_);}
	.st1{clip-path:url(#SVGID_00000075160917264069582650000011613219755891684504_);}
	.st2{fill:#5865F2;}
</style>
<sodipodi:namedview  bordercolor="#666666" borderopacity="1.0" fit-margin-bottom="0" fit-margin-left="0" fit-margin-right="0" fit-margin-top="0" id="base" inkscape:current-layer="layer1" inkscape:cx="223.89268" inkscape:cy="159.75115" inkscape:document-units="mm" inkscape:pageopacity="0.0" inkscape:pageshadow="2" inkscape:window-height="1017" inkscape:window-maximized="1" inkscape:window-width="1920" inkscape:window-x="1912" inkscape:window-y="70" inkscape:zoom="0.84107037" pagecolor="#ffffff" showgrid="false">
	</sodipodi:namedview>
<g id="g866" transform="matrix(0.65270126,0,0,0.64657539,5.830756,127.59218)">
	<g>
		<g>
			<defs>
				<polyline id="SVGID_1_" points="818.8,-37.3 -8.9,-37.3 -8.9,-197.3 818.8,-197.3 				"/>
			</defs>
			<clipPath id="SVGID_00000016782890018959906650000015832138211996769195_">
				<use xlink:href="#SVGID_1_"  style="overflow:visible;"/>
			</clipPath>
			<g id="g835" style="clip-path:url(#SVGID_00000016782890018959906650000015832138211996769195_);">
				<g>
					<g>
						<defs>
							<polyline id="SVGID_00000086689765197497176140000004598701975244374919_" points="818.8,-37.3 -8.9,-37.3 -8.9,-197.3 
								818.8,-197.3 							"/>
						</defs>
						<clipPath id="SVGID_00000114776672467354837370000018440364311045169851_">
							<use xlink:href="#SVGID_00000086689765197497176140000004598701975244374919_"  style="overflow:visible;"/>
						</clipPath>
						<g id="g833" style="clip-path:url(#SVGID_00000114776672467354837370000018440364311045169851_);">
							<path id="path815" inkscape:connector-curvature="0" class="st2" d="M166.2-183.9c-13.4-6.3-27.7-10.8-42.7-13.4
								c-1.8,3.3-4,7.8-5.5,11.3c-15.9-2.4-31.7-2.4-47.3,0c-1.5-3.6-3.7-8-5.5-11.3c-15,2.6-29.3,7.2-42.7,13.4
								c-27,40.8-34.3,80.6-30.7,119.8C9.9-50.7,27.2-42.6,44.3-37.3c4.2-5.8,8-12,11.2-18.5c-6.2-2.3-12.1-5.2-17.6-8.6
								c1.5-1.1,2.9-2.2,4.3-3.4c34,15.9,71,15.9,104.6,0c1.4,1.2,2.9,2.3,4.3,3.4c-5.6,3.4-11.5,6.3-17.7,8.6
								c3.2,6.5,7,12.7,11.2,18.5c17.1-5.3,34.4-13.4,52.4-26.8C201.3-109.6,189.6-149,166.2-183.9z M60.1-88.2
								c-10.2,0-18.6-9.5-18.6-21.1s8.2-21.2,18.6-21.2s18.8,9.5,18.6,21.2C78.7-97.7,70.5-88.2,60.1-88.2z M128.8-88.2
								c-10.2,0-18.6-9.5-18.6-21.1s8.2-21.2,18.6-21.2s18.8,9.5,18.6,21.2C147.4-97.7,139.2-88.2,128.8-88.2z"/>
						</g>
					</g>
				</g>
			</g>
		</g>
	</g>
</g>
</svg>
